<?xml version="1.0" encoding="UTF-8" standalone="no"?>
<!-- Created with Inkscape (http://www.inkscape.org/) -->

<svg
   xmlns:osb="http://www.openswatchbook.org/uri/2009/osb"
   xmlns:dc="http://purl.org/dc/elements/1.1/"
   xmlns:cc="http://creativecommons.org/ns#"
   xmlns:rdf="http://www.w3.org/1999/02/22-rdf-syntax-ns#"
   xmlns:svg="http://www.w3.org/2000/svg"
   xmlns="http://www.w3.org/2000/svg"
   xmlns:sodipodi="http://sodipodi.sourceforge.net/DTD/sodipodi-0.dtd"
   xmlns:inkscape="http://www.inkscape.org/namespaces/inkscape"
   width="744.09448819"
   height="1052.3622047"
   id="svg2"
   version="1.1"
   inkscape:version="0.48.2 r9819"
   sodipodi:docname="New document 1">
  <defs
     id="defs4">
    <linearGradient
       id="linearGradient5197"
       osb:paint="solid">
      <stop
         style="stop-color:#000b0c;stop-opacity:1;"
         offset="0"
         id="stop5199" />
    </linearGradient>
  </defs>
  <sodipodi:namedview
     id="base"
     pagecolor="#ffffff"
     bordercolor="#666666"
     borderopacity="1.0"
     inkscape:pageopacity="0.0"
     inkscape:pageshadow="2"
     inkscape:zoom="0.50933035"
     inkscape:cx="372.04724"
     inkscape:cy="526.18109"
     inkscape:document-units="px"
     inkscape:current-layer="layer1"
     showgrid="false"
     inkscape:window-width="1228"
     inkscape:window-height="778"
     inkscape:window-x="59"
     inkscape:window-y="0"
     inkscape:window-maximized="0" />
  <metadata
     id="metadata7">
    <rdf:RDF>
      <cc:Work
         rdf:about="">
        <dc:format>image/svg+xml</dc:format>
        <dc:type
           rdf:resource="http://purl.org/dc/dcmitype/StillImage" />
        <dc:title></dc:title>
      </cc:Work>
    </rdf:RDF>
  </metadata>
  <g
     inkscape:label="Layer 1"
     inkscape:groupmode="layer"
     id="layer1">
    <path
       sodipodi:type="spiral"
       style="fill:none;stroke:#4e3aed;stroke-width:19.10000038;stroke-linecap:butt;stroke-linejoin:miter;stroke-miterlimit:4;stroke-opacity:1;stroke-dasharray:none"
       id="path2985"
       sodipodi:cx="224.95375"
       sodipodi:cy="439.33032"
       sodipodi:expansion="1"
       sodipodi:revolution="3"
       sodipodi:radius="230.58012"
       sodipodi:argument="-17.811352"
       sodipodi:t0="0"
       d="m 224.95375,439.33032 c 5.87027,9.95966 -10.52924,12.82675 -16.55361,9.75677 -16.32567,-8.31945 -13.37908,-31.22224 -2.95993,-42.86399 18.6374,-20.82437 51.63857,-15.30268 69.17437,3.83691 25.7345,28.08812 17.36084,72.35988 -10.63375,95.48476 -37.31238,30.82182 -93.19313,19.48097 -121.79513,-17.43059 -35.99272,-46.44944 -21.63412,-114.08063 24.22742,-148.10552 55.54448,-41.20872 134.99886,-23.80655 174.41591,31.02426 46.45163,64.61622 25.99111,155.93627 -37.82111,200.72629 C 229.33418,623.47106 126.12143,599.94299 75.971251,527.14126 18.987431,444.41931 45.589158,329.29556 127.38604,273.79421 219.14978,211.53008 346.1975,241.2097 407.04347,332.00584 474.59404,432.80676 441.83346,571.78798 342.035,637.97366"
       transform="matrix(1.6034101,0,0,1.8873216,-22.603957,-318.30231)" />
  </g>
</svg>
